<?xml version="1.0" encoding="UTF-8"?>
<svg id="_レイヤー_1" data-name=" レイヤー 1" xmlns="http://www.w3.org/2000/svg" viewBox="0 0 202.69 64.13">
  <defs>
    <style>
      .cls-1 {
        fill: #00a0e9;
      }
    </style>
  </defs>
  <rect x="150.65" y="19.41" width="6.85" height="40.46"/>
  <path d="M187.67,24.91c3.88,0,7.61,1.55,10.36,4.29l4.66-4.86c-3.97-3.97-9.65-6.32-15.26-6.31-5.61,0-11.29,2.36-15.26,6.33s-6.32,9.65-6.31,15.26c0,5.61,2.36,11.29,6.33,15.26s9.65,6.32,15.26,6.32,11.14-2.25,15.17-6.25l-4.59-4.86c-2.71,2.7-6.6,4.3-10.43,4.29-3.83,0-7.71-1.63-10.41-4.34s-4.3-6.6-4.29-10.43c0-3.83,1.63-7.71,4.34-10.41,2.72-2.7,6.6-4.3,10.43-4.29h0Z"/>
  <polygon points="127.95 19.41 119.98 48.3 112.35 19.41 103.84 19.41 98.53 59.94 105.24 59.94 108.88 32.76 116.23 59.94 123.69 59.94 131.41 32.56 134.75 59.94 141.8 59.94 136.85 19.41 127.95 19.41"/>
  <path d="M31.52,41.87c-1.06-1.25-2.41-2.24-3.83-3.01-4.5-2.49-9.81-2.83-14.72-4.66-.64-.25-1.28-.52-1.78-.96-.51-.42-.9-1.01-1.16-1.64-.26-.61-.4-1.26-.41-1.92-.01-.68.12-1.37.41-1.99.28-.61.71-1.16,1.23-1.57.52-.43,1.14-.73,1.78-.96,1.42-.53,2.94-.73,4.45-.75,1.54-.03,3.07.12,4.59.41,1.48.28,2.95.69,4.31,1.3,1.39.62,2.68,1.44,3.97,2.26l2.94-5.54c-1.91-1.17-3.82-2.34-5.89-3.15-2.08-.82-4.33-1.28-6.57-1.44-2.22-.16-4.44-.03-6.64.34-2.22.37-4.42.99-6.37,2.12-1.44.83-2.74,1.93-3.7,3.29-.96,1.33-1.58,2.89-1.85,4.52-.28,1.64-.2,3.34.27,4.93.46,1.59,1.32,3.07,2.46,4.25,1.15,1.19,2.59,2.08,4.11,2.74,4.51,1.99,9.66,2,14.1,4.18.65.33,1.29.71,1.78,1.23.5.51.87,1.16,1.1,1.85s.34,1.41.27,2.12c-.06.72-.31,1.43-.68,2.05s-.87,1.15-1.44,1.57c-1.41,1.06-3.26,1.41-5.07,1.57-1.82.17-3.59.17-5.34-.14-1.74-.29-3.47-.89-5-1.78-1.52-.88-2.85-2.05-4.18-3.22l-4.66,4.45c1.99,1.6,3.99,3.2,6.23,4.38,2.24,1.18,4.73,1.95,7.26,2.33,2.51.39,5.06.39,7.6.07,2.54-.31,5.08-.95,7.26-2.26,1.41-.83,2.68-1.95,3.63-3.29.96-1.31,1.61-2.85,1.92-4.45.32-1.63.29-3.33-.14-4.93-.41-1.59-1.19-3.08-2.26-4.31h.02Z"/>
  <path class="cls-1" d="M85.7,24.92l16.91-18.18c.69-.8,1.06-1.9.99-2.96-.08-1.06-.6-2.09-1.4-2.79-.8-.69-1.9-1.06-2.96-.98-.9.06-1.78.44-2.45,1.05l-17.11,18.25c-5.44-3.51-12.04-4.71-18.37-3.35-6.2,1.34-11.92,5.29-15.36,10.62-3.44,5.33-4.69,12.17-3.35,18.37.75,3.47,2.3,6.84,4.46,9.66l32.62-35.16c2.25,1.44,4.33,3.35,5.95,5.48l-32.56,35.23c5.29,3.47,12.1,4.77,18.3,3.49,6.2-1.29,11.93-5.19,15.41-10.48,3.47-5.29,4.77-12.11,3.49-18.3-.74-3.58-2.34-7.04-4.57-9.94h0Z"/>
</svg>